# xmcd CD database file
# Generated: Thu May 15 14:20:05 2003 by KSCD
# 
# Track frame offsets:
#       150
#       18658
#       39070
#       56057
#       78206
#       97971
#       114271
#       131147
#       152647
#       171829
#       196466
#
# Disc length: 2950 seconds
#
# Revision: 4
# Processed by: cddbd v1.4PL0 Copyright (c) Steve Scherf et al.
# Submitted via: Kscd 1.3.2
#
DISCID=830b840b
DTITLE=U2 - All That You Can't Leave Behind
DYEAR=2000
DGENRE=Rock
TTITLE0=Beautiful day
TTITLE1=Stuck In A Moment You Can't Get Out Of
TTITLE2=Elevation
TTITLE3=Walk On
TTITLE4=Kite
TTITLE5=In A Little While
TTITLE6=Wild honey
TTITLE7=Peace On Earth
TTITLE8=When I Look At The World
TTITLE9=New York
TTITLE10=Grace
EXTD=\nYEAR: 2000  ID3G:  17
EXTT0=
EXTT1=
EXTT2=
EXTT3=
EXTT4=
EXTT5=
EXTT6=
EXTT7=
EXTT8=
EXTT9=
EXTT10=
PLAYORDER=
